<?xml version="1.0" encoding="iso-8859-1"?>
<!-- Generator: Adobe Illustrator 17.1.0, SVG Export Plug-In . SVG Version: 6.00 Build 0)  -->
<!DOCTYPE svg PUBLIC "-//W3C//DTD SVG 1.1//EN" "http://www.w3.org/Graphics/SVG/1.1/DTD/svg11.dtd">
<svg version="1.1" id="Capa_1" xmlns="http://www.w3.org/2000/svg" fill="#7d5c84" xmlns:xlink="http://www.w3.org/1999/xlink" x="0px" y="0px"
	 viewBox="0 0 204.671 204.671" style="enable-background:new 0 0 204.671 204.671;" xml:space="preserve">
<path d="M51.833,182.377H2.667c-1.381,0-2.5-1.119-2.5-2.5c0-11.966,7.8-22.145,18.583-25.717V91.439
	C7.616,87.802,0,77.421,0,65.544v-40.75c0-1.381,1.119-2.5,2.5-2.5H52c1.381,0,2.5,1.119,2.5,2.5v40.75
	c0,11.877-7.616,22.258-18.75,25.895v62.722c10.783,3.572,18.583,13.751,18.583,25.717
	C54.333,181.258,53.214,182.377,51.833,182.377z M5.308,177.377h43.885c-1.245-11.004-10.61-19.583-21.942-19.583
	S6.553,166.373,5.308,177.377z M27.25,152.794h3.5V89.558c0-1.148,0.782-2.148,1.896-2.426C42.569,84.66,49.5,75.782,49.5,65.544
	v-38.25h-2.708v37.75c0,10.614-8.636,19.25-19.25,19.25s-19.25-8.636-19.25-19.25v-37.75H5v38.25
	c0,10.238,6.931,19.116,16.854,21.588c1.113,0.277,1.896,1.277,1.896,2.426v63.236H27.25z M13.292,27.294v37.75
	c0,7.857,6.393,14.25,14.25,14.25s14.25-6.393,14.25-14.25v-37.75H13.292z M176.909,181.575H84.832
	c-1.265,0-2.329-0.943-2.481-2.198L68.94,68.929c-0.087-0.711,0.136-1.424,0.61-1.96c0.475-0.535,1.155-0.842,1.871-0.842h9.001
	l32.727-32.726c8.762-8.763,23.021-8.764,31.785,0l32.726,32.726h12.659c0.716,0,1.396,0.307,1.871,0.842
	c0.329,0.371,0.536,0.827,0.604,1.309c1.375,1.968,17.756,25.983,9.62,41.707c-2.825,5.461-8.168,9.172-15.946,11.098l-7.078,58.295
	C179.238,180.632,178.174,181.575,176.909,181.575z M87.047,176.575h87.647l6.62-54.525c-2.896,0.391-6.055,0.586-9.475,0.586
	c-29.008,0-50.396-14.093-63.231-25.916C95.764,84.889,88.853,73.19,87.684,71.127H74.244L87.047,176.575z M93.547,71.127
	c6.614,10.297,33.097,46.509,78.293,46.509c3.737,0,7.105-0.241,10.099-0.722l5.559-45.787H93.547z M191.905,76.311l-4.787,39.421
	c5.298-1.637,8.932-4.324,10.856-8.045C202.873,98.22,196.255,83.939,191.905,76.311z M87.494,66.127h83.096l-29.19-29.19
	c-6.815-6.813-17.901-6.811-24.715,0L87.494,66.127z M118.535,63.89c-0.641,0-1.28-0.244-1.769-0.733l-1.208-1.209
	c-0.976-0.977-0.976-2.56,0.002-3.535c0.975-0.976,2.559-0.977,3.535,0.002l1.208,1.209c0.976,0.977,0.976,2.56-0.002,3.535
	C119.814,63.646,119.175,63.89,118.535,63.89z M105.654,63.89c-0.641,0-1.28-0.244-1.769-0.733l-1.208-1.209
	c-0.976-0.977-0.976-2.56,0.002-3.535c0.976-0.976,2.56-0.977,3.535,0.002l1.208,1.209c0.976,0.977,0.976,2.56-0.002,3.535
	C106.934,63.646,106.294,63.89,105.654,63.89z M130.208,52.217c-0.64,0-1.279-0.244-1.768-0.732l-1.208-1.208
	c-0.977-0.977-0.977-2.559,0-3.535s2.559-0.977,3.535,0l1.208,1.208c0.977,0.977,0.977,2.559,0,3.535
	C131.487,51.973,130.848,52.217,130.208,52.217z M117.327,52.217c-0.64,0-1.279-0.244-1.768-0.732l-1.208-1.208
	c-0.977-0.977-0.977-2.559,0-3.535s2.559-0.977,3.535,0l1.208,1.208c0.977,0.977,0.977,2.559,0,3.535
	C118.606,51.973,117.967,52.217,117.327,52.217z M129,40.544c-0.64,0-1.279-0.244-1.768-0.732l-1.208-1.208
	c-0.977-0.977-0.977-2.559,0-3.535s2.559-0.977,3.535,0l1.208,1.208c0.977,0.977,0.977,2.559,0,3.535
	C130.279,40.3,129.64,40.544,129,40.544z"/>
<g>
</g>
<g>
</g>
<g>
</g>
<g>
</g>
<g>
</g>
<g>
</g>
<g>
</g>
<g>
</g>
<g>
</g>
<g>
</g>
<g>
</g>
<g>
</g>
<g>
</g>
<g>
</g>
<g>
</g>
</svg>
